<svg width="414" height="896" viewBox="0 0 414 896" fill="none" xmlns="http://www.w3.org/2000/svg">
<rect width="414" height="896" fill="white"/>
<path d="M284.932 63.0679C284.891 63.6868 284.831 64.5511 284.749 65.6344C284.567 68.0077 284.277 71.432 283.84 75.6303C282.966 84.0283 281.507 95.5167 279.167 107.883C276.827 120.253 273.61 133.478 269.226 145.359C264.835 157.257 259.306 167.718 252.387 174.637C235.42 191.604 210.255 195.309 189.625 185.895C195.232 156.296 210.797 130.219 232.939 111.514L231.835 109.862C205.497 123.474 184.316 146.19 172.177 173.415C151.578 151.555 151.923 117.054 173.363 95.6134C180.282 88.6945 190.743 83.1649 202.641 78.7743C214.522 74.39 227.747 71.1728 240.117 68.8326C252.483 66.493 263.972 65.0341 272.37 64.1601C276.568 63.7231 279.992 63.4326 282.366 63.2513C283.449 63.1686 284.313 63.1086 284.932 63.0679Z" fill="#54EB90" stroke="#54EB90" stroke-width="2"/>
<rect x="93" y="711" width="223" height="59" rx="29" fill="white"/>
<path d="M182.859 743.854C182.859 743.145 182.61 742.585 182.112 742.175C181.614 741.759 180.703 741.366 179.379 740.997C178.055 740.622 177.088 740.215 176.479 739.775C175.611 739.154 175.178 738.34 175.178 737.332C175.178 736.354 175.579 735.56 176.382 734.95C177.19 734.335 178.222 734.027 179.476 734.027C180.325 734.027 181.084 734.191 181.752 734.52C182.426 734.848 182.947 735.305 183.316 735.891C183.686 736.477 183.87 737.13 183.87 737.851H182.78C182.78 736.978 182.481 736.277 181.884 735.75C181.286 735.217 180.483 734.95 179.476 734.95C178.497 734.95 177.718 735.17 177.138 735.609C176.558 736.043 176.268 736.611 176.268 737.314C176.268 737.965 176.528 738.495 177.05 738.905C177.571 739.315 178.406 739.679 179.555 739.995C180.703 740.306 181.573 740.631 182.165 740.971C182.757 741.305 183.202 741.706 183.501 742.175C183.8 742.644 183.949 743.197 183.949 743.836C183.949 744.844 183.545 745.652 182.736 746.262C181.934 746.871 180.873 747.176 179.555 747.176C178.652 747.176 177.823 747.015 177.067 746.692C176.317 746.37 175.746 745.919 175.354 745.339C174.967 744.759 174.773 744.094 174.773 743.344H175.854C175.854 744.246 176.191 744.958 176.865 745.479C177.539 746.001 178.436 746.262 179.555 746.262C180.551 746.262 181.351 746.042 181.954 745.603C182.558 745.163 182.859 744.58 182.859 743.854ZM187.219 747H186.164V737.49H187.219V747ZM185.979 734.739C185.979 734.54 186.044 734.373 186.173 734.238C186.302 734.098 186.478 734.027 186.7 734.027C186.923 734.027 187.099 734.098 187.228 734.238C187.362 734.373 187.43 734.54 187.43 734.739C187.43 734.938 187.362 735.105 187.228 735.24C187.099 735.375 186.923 735.442 186.7 735.442C186.478 735.442 186.302 735.375 186.173 735.24C186.044 735.105 185.979 734.938 185.979 734.739ZM189.662 742.157C189.662 740.669 189.99 739.491 190.646 738.624C191.309 737.751 192.205 737.314 193.336 737.314C194.631 737.314 195.615 737.83 196.289 738.861L196.342 737.49H197.326V746.807C197.326 748.031 196.983 749.001 196.298 749.716C195.612 750.431 194.684 750.788 193.512 750.788C192.85 750.788 192.217 750.639 191.613 750.34C191.016 750.047 190.544 749.654 190.198 749.162L190.787 748.529C191.531 749.443 192.416 749.9 193.441 749.9C194.32 749.9 195.006 749.64 195.498 749.118C195.99 748.603 196.245 747.885 196.263 746.965V745.77C195.589 746.707 194.607 747.176 193.318 747.176C192.217 747.176 191.332 746.736 190.664 745.857C189.996 744.979 189.662 743.792 189.662 742.298V742.157ZM190.726 742.342C190.726 743.555 190.969 744.513 191.455 745.216C191.941 745.913 192.627 746.262 193.512 746.262C194.807 746.262 195.724 745.682 196.263 744.521V740.101C196.017 739.491 195.662 739.028 195.199 738.712C194.736 738.39 194.18 738.229 193.529 738.229C192.645 738.229 191.956 738.577 191.464 739.274C190.972 739.966 190.726 740.988 190.726 742.342ZM201.07 737.49L201.105 739.116C201.463 738.53 201.908 738.085 202.441 737.78C202.975 737.47 203.563 737.314 204.208 737.314C205.228 737.314 205.986 737.602 206.484 738.176C206.982 738.75 207.234 739.611 207.24 740.76V747H206.194V740.751C206.188 739.901 206.007 739.269 205.649 738.853C205.298 738.437 204.732 738.229 203.953 738.229C203.303 738.229 202.726 738.434 202.222 738.844C201.724 739.248 201.354 739.796 201.114 740.487V747H200.068V737.49H201.07ZM223.403 734.203V742.939C223.397 743.801 223.207 744.551 222.832 745.189C222.457 745.828 221.927 746.32 221.241 746.666C220.562 747.006 219.779 747.176 218.895 747.176C217.547 747.176 216.466 746.81 215.651 746.077C214.843 745.339 214.424 744.319 214.395 743.019V734.203H215.467V742.86C215.467 743.938 215.774 744.776 216.39 745.374C217.005 745.966 217.84 746.262 218.895 746.262C219.949 746.262 220.781 745.963 221.391 745.365C222.006 744.768 222.313 743.936 222.313 742.869V734.203H223.403ZM233.818 742.342C233.818 743.824 233.49 745.002 232.834 745.875C232.178 746.742 231.299 747.176 230.197 747.176C228.896 747.176 227.9 746.719 227.209 745.805V750.656H226.163V737.49H227.139L227.191 738.835C227.877 737.821 228.87 737.314 230.171 737.314C231.308 737.314 232.198 737.745 232.843 738.606C233.493 739.468 233.818 740.663 233.818 742.192V742.342ZM232.764 742.157C232.764 740.944 232.515 739.986 232.017 739.283C231.519 738.58 230.824 738.229 229.934 738.229C229.289 738.229 228.735 738.384 228.272 738.694C227.81 739.005 227.455 739.456 227.209 740.048V744.609C227.461 745.154 227.821 745.57 228.29 745.857C228.759 746.145 229.312 746.288 229.951 746.288C230.836 746.288 231.524 745.937 232.017 745.233C232.515 744.524 232.764 743.499 232.764 742.157Z" fill="black"/>
<rect x="93" y="711" width="223" height="59" rx="29" stroke="#54EB90" stroke-width="2"/>
<rect x="93" y="801" width="228" height="60" rx="29" fill="white" stroke="#54EB90" stroke-width="2"/>
<path d="M187.859 834.854C187.859 834.145 187.61 833.585 187.112 833.175C186.614 832.759 185.703 832.366 184.379 831.997C183.055 831.622 182.088 831.215 181.479 830.775C180.611 830.154 180.178 829.34 180.178 828.332C180.178 827.354 180.579 826.56 181.382 825.95C182.19 825.335 183.222 825.027 184.476 825.027C185.325 825.027 186.084 825.191 186.752 825.52C187.426 825.848 187.947 826.305 188.316 826.891C188.686 827.477 188.87 828.13 188.87 828.851H187.78C187.78 827.978 187.481 827.277 186.884 826.75C186.286 826.217 185.483 825.95 184.476 825.95C183.497 825.95 182.718 826.17 182.138 826.609C181.558 827.043 181.268 827.611 181.268 828.314C181.268 828.965 181.528 829.495 182.05 829.905C182.571 830.315 183.406 830.679 184.555 830.995C185.703 831.306 186.573 831.631 187.165 831.971C187.757 832.305 188.202 832.706 188.501 833.175C188.8 833.644 188.949 834.197 188.949 834.836C188.949 835.844 188.545 836.652 187.736 837.262C186.934 837.871 185.873 838.176 184.555 838.176C183.652 838.176 182.823 838.015 182.067 837.692C181.317 837.37 180.746 836.919 180.354 836.339C179.967 835.759 179.773 835.094 179.773 834.344H180.854C180.854 835.246 181.191 835.958 181.865 836.479C182.539 837.001 183.436 837.262 184.555 837.262C185.551 837.262 186.351 837.042 186.954 836.603C187.558 836.163 187.859 835.58 187.859 834.854ZM192.219 838H191.164V828.49H192.219V838ZM190.979 825.739C190.979 825.54 191.044 825.373 191.173 825.238C191.302 825.098 191.478 825.027 191.7 825.027C191.923 825.027 192.099 825.098 192.228 825.238C192.362 825.373 192.43 825.54 192.43 825.739C192.43 825.938 192.362 826.105 192.228 826.24C192.099 826.375 191.923 826.442 191.7 826.442C191.478 826.442 191.302 826.375 191.173 826.24C191.044 826.105 190.979 825.938 190.979 825.739ZM194.662 833.157C194.662 831.669 194.99 830.491 195.646 829.624C196.309 828.751 197.205 828.314 198.336 828.314C199.631 828.314 200.615 828.83 201.289 829.861L201.342 828.49H202.326V837.807C202.326 839.031 201.983 840.001 201.298 840.716C200.612 841.431 199.684 841.788 198.512 841.788C197.85 841.788 197.217 841.639 196.613 841.34C196.016 841.047 195.544 840.654 195.198 840.162L195.787 839.529C196.531 840.443 197.416 840.9 198.441 840.9C199.32 840.9 200.006 840.64 200.498 840.118C200.99 839.603 201.245 838.885 201.263 837.965V836.77C200.589 837.707 199.607 838.176 198.318 838.176C197.217 838.176 196.332 837.736 195.664 836.857C194.996 835.979 194.662 834.792 194.662 833.298V833.157ZM195.726 833.342C195.726 834.555 195.969 835.513 196.455 836.216C196.941 836.913 197.627 837.262 198.512 837.262C199.807 837.262 200.724 836.682 201.263 835.521V831.101C201.017 830.491 200.662 830.028 200.199 829.712C199.736 829.39 199.18 829.229 198.529 829.229C197.645 829.229 196.956 829.577 196.464 830.274C195.972 830.966 195.726 831.988 195.726 833.342ZM206.07 828.49L206.105 830.116C206.463 829.53 206.908 829.085 207.441 828.78C207.975 828.47 208.563 828.314 209.208 828.314C210.228 828.314 210.986 828.602 211.484 829.176C211.982 829.75 212.234 830.611 212.24 831.76V838H211.194V831.751C211.188 830.901 211.007 830.269 210.649 829.853C210.298 829.437 209.732 829.229 208.953 829.229C208.303 829.229 207.726 829.434 207.222 829.844C206.724 830.248 206.354 830.796 206.114 831.487V838H205.068V828.49H206.07ZM220.906 838H219.825V825.203H220.906V838ZM225.143 828.49L225.178 830.116C225.535 829.53 225.98 829.085 226.514 828.78C227.047 828.47 227.636 828.314 228.28 828.314C229.3 828.314 230.059 828.602 230.557 829.176C231.055 829.75 231.307 830.611 231.312 831.76V838H230.267V831.751C230.261 830.901 230.079 830.269 229.722 829.853C229.37 829.437 228.805 829.229 228.025 829.229C227.375 829.229 226.798 829.434 226.294 829.844C225.796 830.248 225.427 830.796 225.187 831.487V838H224.141V828.49H225.143Z" fill="black"/>
<path d="M127.528 291.6H132.856V337.392H161.08V342H127.528V291.6ZM183.764 342.36C180.116 342.36 176.828 341.544 173.9 339.912C170.972 338.232 168.668 335.928 166.988 333C165.308 330.072 164.468 326.76 164.468 323.064C164.468 319.368 165.308 316.056 166.988 313.128C168.668 310.2 170.972 307.92 173.9 306.288C176.828 304.656 180.116 303.84 183.764 303.84C187.412 303.84 190.7 304.656 193.628 306.288C196.556 307.92 198.836 310.2 200.468 313.128C202.148 316.056 202.988 319.368 202.988 323.064C202.988 326.76 202.148 330.072 200.468 333C198.836 335.928 196.556 338.232 193.628 339.912C190.7 341.544 187.412 342.36 183.764 342.36ZM183.764 337.824C186.452 337.824 188.852 337.224 190.964 336.024C193.124 334.776 194.804 333.024 196.004 330.768C197.204 328.512 197.804 325.944 197.804 323.064C197.804 320.184 197.204 317.616 196.004 315.36C194.804 313.104 193.124 311.376 190.964 310.176C188.852 308.928 186.452 308.304 183.764 308.304C181.076 308.304 178.652 308.928 176.492 310.176C174.38 311.376 172.7 313.104 171.452 315.36C170.252 317.616 169.652 320.184 169.652 323.064C169.652 325.944 170.252 328.512 171.452 330.768C172.7 333.024 174.38 334.776 176.492 336.024C178.652 337.224 181.076 337.824 183.764 337.824ZM228.905 342.36C225.257 342.36 221.969 341.544 219.041 339.912C216.113 338.232 213.809 335.928 212.129 333C210.449 330.072 209.609 326.76 209.609 323.064C209.609 319.368 210.449 316.056 212.129 313.128C213.809 310.2 216.113 307.92 219.041 306.288C221.969 304.656 225.257 303.84 228.905 303.84C232.553 303.84 235.841 304.656 238.769 306.288C241.697 307.92 243.977 310.2 245.609 313.128C247.289 316.056 248.129 319.368 248.129 323.064C248.129 326.76 247.289 330.072 245.609 333C243.977 335.928 241.697 338.232 238.769 339.912C235.841 341.544 232.553 342.36 228.905 342.36ZM228.905 337.824C231.593 337.824 233.993 337.224 236.105 336.024C238.265 334.776 239.945 333.024 241.145 330.768C242.345 328.512 242.945 325.944 242.945 323.064C242.945 320.184 242.345 317.616 241.145 315.36C239.945 313.104 238.265 311.376 236.105 310.176C233.993 308.928 231.593 308.304 228.905 308.304C226.217 308.304 223.793 308.928 221.633 310.176C219.521 311.376 217.841 313.104 216.593 315.36C215.393 317.616 214.793 320.184 214.793 323.064C214.793 325.944 215.393 328.512 216.593 330.768C217.841 333.024 219.521 334.776 221.633 336.024C223.793 337.224 226.217 337.824 228.905 337.824ZM272.605 322.992L263.678 331.2V342H258.566V288.576H263.678V324.792L286.286 304.128H292.622L276.422 319.608L294.134 342H287.87L272.605 322.992ZM191.517 391.84C196.461 391.84 200.253 393.088 202.893 395.584C205.533 398.032 206.853 401.68 206.853 406.528V430H201.957V424.096C200.805 426.064 199.101 427.6 196.845 428.704C194.637 429.808 191.997 430.36 188.925 430.36C184.701 430.36 181.341 429.352 178.845 427.336C176.349 425.32 175.101 422.656 175.101 419.344C175.101 416.128 176.253 413.536 178.557 411.568C180.909 409.6 184.629 408.616 189.717 408.616H201.741V406.312C201.741 403.048 200.829 400.576 199.005 398.896C197.181 397.168 194.517 396.304 191.013 396.304C188.613 396.304 186.309 396.712 184.101 397.528C181.893 398.296 179.997 399.376 178.413 400.768L176.109 396.952C178.029 395.32 180.333 394.072 183.021 393.208C185.709 392.296 188.541 391.84 191.517 391.84ZM189.717 426.328C192.597 426.328 195.069 425.68 197.133 424.384C199.197 423.04 200.733 421.12 201.741 418.624V412.432H189.861C183.381 412.432 180.141 414.688 180.141 419.2C180.141 421.408 180.981 423.16 182.661 424.456C184.341 425.704 186.693 426.328 189.717 426.328ZM240.681 427.696C239.721 428.56 238.521 429.232 237.081 429.712C235.689 430.144 234.225 430.36 232.689 430.36C229.137 430.36 226.401 429.4 224.481 427.48C222.561 425.56 221.601 422.848 221.601 419.344V396.448H214.833V392.128H221.601V383.848H226.713V392.128H238.233V396.448H226.713V419.056C226.713 421.312 227.265 423.04 228.369 424.24C229.521 425.392 231.153 425.968 233.265 425.968C234.321 425.968 235.329 425.8 236.289 425.464C237.297 425.128 238.161 424.648 238.881 424.024L240.681 427.696ZM170.753 480.128L151.817 522.536C150.281 526.088 148.505 528.608 146.489 530.096C144.473 531.584 142.049 532.328 139.217 532.328C137.393 532.328 135.689 532.04 134.105 531.464C132.521 530.888 131.153 530.024 130.001 528.872L132.377 525.056C134.297 526.976 136.601 527.936 139.289 527.936C141.017 527.936 142.481 527.456 143.681 526.496C144.929 525.536 146.081 523.904 147.137 521.6L148.793 517.928L131.873 480.128H137.201L151.457 512.312L165.713 480.128H170.753ZM192.378 518.36C188.73 518.36 185.442 517.544 182.514 515.912C179.586 514.232 177.282 511.928 175.602 509C173.922 506.072 173.082 502.76 173.082 499.064C173.082 495.368 173.922 492.056 175.602 489.128C177.282 486.2 179.586 483.92 182.514 482.288C185.442 480.656 188.73 479.84 192.378 479.84C196.026 479.84 199.314 480.656 202.242 482.288C205.17 483.92 207.45 486.2 209.082 489.128C210.762 492.056 211.602 495.368 211.602 499.064C211.602 502.76 210.762 506.072 209.082 509C207.45 511.928 205.17 514.232 202.242 515.912C199.314 517.544 196.026 518.36 192.378 518.36ZM192.378 513.824C195.066 513.824 197.466 513.224 199.578 512.024C201.738 510.776 203.418 509.024 204.618 506.768C205.818 504.512 206.418 501.944 206.418 499.064C206.418 496.184 205.818 493.616 204.618 491.36C203.418 489.104 201.738 487.376 199.578 486.176C197.466 484.928 195.066 484.304 192.378 484.304C189.69 484.304 187.266 484.928 185.106 486.176C182.994 487.376 181.314 489.104 180.066 491.36C178.866 493.616 178.266 496.184 178.266 499.064C178.266 501.944 178.866 504.512 180.066 506.768C181.314 509.024 182.994 510.776 185.106 512.024C187.266 513.224 189.69 513.824 192.378 513.824ZM256.166 480.128V518H251.27V511.088C249.926 513.392 248.078 515.192 245.726 516.488C243.374 517.736 240.686 518.36 237.662 518.36C232.718 518.36 228.806 516.992 225.926 514.256C223.094 511.472 221.678 507.416 221.678 502.088V480.128H226.79V501.584C226.79 505.568 227.774 508.592 229.742 510.656C231.71 512.72 234.518 513.752 238.166 513.752C242.15 513.752 245.294 512.552 247.598 510.152C249.902 507.704 251.054 504.32 251.054 500V480.128H256.166ZM147.485 568.128V601.392C147.485 607.824 145.901 612.576 142.733 615.648C139.613 618.768 134.885 620.328 128.549 620.328C125.045 620.328 121.709 619.8 118.541 618.744C115.421 617.736 112.877 616.32 110.909 614.496L113.501 610.608C115.325 612.24 117.533 613.512 120.125 614.424C122.765 615.336 125.525 615.792 128.405 615.792C133.205 615.792 136.733 614.664 138.989 612.408C141.245 610.2 142.373 606.744 142.373 602.04V597.216C140.789 599.616 138.701 601.44 136.109 602.688C133.565 603.936 130.733 604.56 127.613 604.56C124.061 604.56 120.821 603.792 117.893 602.256C115.013 600.672 112.733 598.488 111.053 595.704C109.421 592.872 108.605 589.68 108.605 586.128C108.605 582.576 109.421 579.408 111.053 576.624C112.733 573.84 115.013 571.68 117.893 570.144C120.773 568.608 124.013 567.84 127.613 567.84C130.829 567.84 133.733 568.488 136.325 569.784C138.917 571.08 141.005 572.952 142.589 575.4V568.128H147.485ZM128.117 600.024C130.853 600.024 133.325 599.448 135.533 598.296C137.741 597.096 139.445 595.44 140.645 593.328C141.893 591.216 142.517 588.816 142.517 586.128C142.517 583.44 141.893 581.064 140.645 579C139.445 576.888 137.741 575.256 135.533 574.104C133.373 572.904 130.901 572.304 128.117 572.304C125.381 572.304 122.909 572.88 120.701 574.032C118.541 575.184 116.837 576.816 115.589 578.928C114.389 581.04 113.789 583.44 113.789 586.128C113.789 588.816 114.389 591.216 115.589 593.328C116.837 595.44 118.541 597.096 120.701 598.296C122.909 599.448 125.381 600.024 128.117 600.024ZM166.676 575.544C167.876 573 169.652 571.08 172.004 569.784C174.404 568.488 177.356 567.84 180.86 567.84V572.808L179.636 572.736C175.652 572.736 172.532 573.96 170.276 576.408C168.02 578.856 166.892 582.288 166.892 586.704V606H161.78V568.128H166.676V575.544ZM205.245 606.36C201.597 606.36 198.309 605.544 195.381 603.912C192.453 602.232 190.149 599.928 188.469 597C186.789 594.072 185.949 590.76 185.949 587.064C185.949 583.368 186.789 580.056 188.469 577.128C190.149 574.2 192.453 571.92 195.381 570.288C198.309 568.656 201.597 567.84 205.245 567.84C208.893 567.84 212.181 568.656 215.109 570.288C218.037 571.92 220.317 574.2 221.949 577.128C223.629 580.056 224.469 583.368 224.469 587.064C224.469 590.76 223.629 594.072 221.949 597C220.317 599.928 218.037 602.232 215.109 603.912C212.181 605.544 208.893 606.36 205.245 606.36ZM205.245 601.824C207.933 601.824 210.333 601.224 212.445 600.024C214.605 598.776 216.285 597.024 217.485 594.768C218.685 592.512 219.285 589.944 219.285 587.064C219.285 584.184 218.685 581.616 217.485 579.36C216.285 577.104 214.605 575.376 212.445 574.176C210.333 572.928 207.933 572.304 205.245 572.304C202.557 572.304 200.133 572.928 197.973 574.176C195.861 575.376 194.181 577.104 192.933 579.36C191.733 581.616 191.133 584.184 191.133 587.064C191.133 589.944 191.733 592.512 192.933 594.768C194.181 597.024 195.861 598.776 197.973 600.024C200.133 601.224 202.557 601.824 205.245 601.824ZM289.435 568.128L275.107 606H270.283L258.331 574.968L246.379 606H241.555L227.299 568.128H232.195L244.075 600.312L256.243 568.128H260.635L272.731 600.312L284.755 568.128H289.435ZM296.34 555.6H302.388L301.308 590.88H297.348L296.34 555.6ZM299.364 606.36C298.308 606.36 297.396 606 296.628 605.28C295.908 604.512 295.548 603.624 295.548 602.616C295.548 601.56 295.908 600.696 296.628 600.024C297.348 599.304 298.26 598.944 299.364 598.944C300.42 598.944 301.308 599.304 302.028 600.024C302.748 600.696 303.108 601.56 303.108 602.616C303.108 603.624 302.748 604.512 302.028 605.28C301.308 606 300.42 606.36 299.364 606.36Z" fill="black"/>
</svg>
